<svg id="Capa_1" data-name="Capa 1" xmlns="http://www.w3.org/2000/svg" viewBox="0 0 512 512"><defs><style>.cls-1{fill:#634627;}.cls-2{fill:#5c3d1d;}.cls-3{fill:#fbc188;}.cls-4{fill:#fbc997;}</style></defs><path class="cls-1" d="M449.74,432.1S422.93,157.84,411,112.35C396.82,58.52,365.26,11.57,304.07,1c-7.65-1.32-88.5-1.32-96.15,0-27,4.68-48.29,16.46-64.81,32.8,0,0-42.54,43.47-51.19,121.72C85.65,212.26,82,269.44,76.74,326.23c-3.28,35.39-8.13,70.86-14.48,105.87-2.92,16.18-9.8,58.12-25.69,67.27H477.38c-15.89-9.15-24.72-51.1-27.64-67.27Z" transform="translate(0 0)"/><path class="cls-1" d="M251.43,33.79c66.31,0,125.26,37.18,162.88,94.83-1.2-6.82-2.32-12.41-3.34-16.27C396.82,58.53,365.26,11.58,304.07,1c-7.65-1.32-88.5-1.32-96.15,0-27,4.67-48.29,16.45-64.81,32.79,0,0-26.51,27.25-41.93,77.24C138.72,63.52,192.13,33.79,251.43,33.79Z" transform="translate(0 0)"/><path class="cls-2" d="M384,207.68H128s-14.36,30.43,18.29,139.12c18.28,60.86-9.15,95.64-45.72,121.73C85,479.67,41.39,505.17,41.39,505.17h434s-82.29-19.25-100.57-45.34S347.43,372.88,384,207.68Z" transform="translate(0 0)"/><path class="cls-3" d="M512,512c0-9.73-8.05-17.74-18.27-18.17L393,489.49c-35.87-2-63.89-30.26-63.89-64.44V312H182.86v113c0,34.18-28,62.43-63.89,64.44l-100.7,4.34C8.05,494.26,0,502.27,0,512Z" transform="translate(0 0)"/><path class="cls-4" d="M256,113.66c-27.43,49.18-137.13,89.51-137.14,89.52-5,1.85,32.23,115,37.3,125.38C176.69,370.6,210.62,399,256,399c100.57,0,111.6-121.14,134.88-196.79,0,0-102-147.56-134.88-88.52Z" transform="translate(0 0)"/></svg>