<?xml version="1.0" encoding="utf-8"?>
<!-- Generator: Adobe Illustrator 22.0.0, SVG Export Plug-In . SVG Version: 6.00 Build 0)  -->
<svg version="1.1" id="Capa_1" xmlns="http://www.w3.org/2000/svg" xmlns:xlink="http://www.w3.org/1999/xlink" x="0px" y="0px"
	 viewBox="0 0 512 512" style="enable-background:new 0 0 512 512;" xml:space="preserve">
<style type="text/css">
	.st0{fill:#FFFFFF;}
</style>
<g>
	<path class="st0" d="M376,120c-16.6,0-30-13.4-30-30V30c0-16.6,13.4-30,30-30s30,13.4,30,30v60C406,106.6,392.6,120,376,120z"/>
	<g>
		<path class="st0" d="M457,60h-21v30c0,33.1-26.9,60-60,60s-60-26.9-60-60V60H196v30c0,33.1-26.9,60-60,60s-60-26.9-60-60V60H55
			C24.7,60,0,84.7,0,115v67h512v-67C512,84.7,487.3,60,457,60z"/>
	</g>
	<path class="st0" d="M136,120c-16.6,0-30-13.4-30-30V30c0-16.6,13.4-30,30-30s30,13.4,30,30v60C166,106.6,152.6,120,136,120z"/>
	<path class="st0" d="M0,212v245c0,30.3,24.7,55,55,55h402c30.3,0,55-24.7,55-55V212H0z M271.8,407c0,33.1-26.9,60-60,60
		c-29.8,0-55.3-22.2-59.4-51.6c-0.4-2.7-0.6-5.6-0.6-8.4c0-8.3,6.7-15,15-15s15,6.7,15,15c0,1.4,0.1,2.8,0.3,4.2
		c2.1,14.7,14.8,25.8,29.7,25.8c16.5,0,30-13.5,30-30s-13.5-30-30-30c-8.3,0-15-6.7-15-15s6.7-15,15-15c16.5,0,30-13.5,30-30
		s-13.5-30-30-30c-14.3,0-26.7,10.2-29.4,24.2c-1.6,8.1-9.5,13.4-17.6,11.8c-8.1-1.6-13.4-9.5-11.8-17.6c5.5-28,30.3-48.4,58.9-48.4
		c33.1,0,60,26.9,60,60c0,17.9-7.9,34-20.4,45C263.9,373,271.8,389.1,271.8,407L271.8,407z M360.2,452c0,8.3-6.7,15-15,15
		s-15-6.7-15-15V287h-23.5c-8.3,0-15-6.7-15-15s6.7-15,15-15h38.5c8.3,0,15,6.7,15,15V452z"/>
</g>
</svg>
