<svg id="Capa_1" enable-background="new 0 0 512 512" height="512" viewBox="0 0 512 512" width="512" xmlns="http://www.w3.org/2000/svg"><g><g><path d="m481.402 130.386c-12.794 0-23.166 10.372-23.166 23.166v-54.334c0-12.795-10.372-23.166-23.166-23.166-12.794 0-23.166 10.372-23.166 23.166v-21.546c0-12.794-10.372-23.166-23.166-23.166-12.794 0-23.166 10.372-23.166 23.166v26.65c-.031-12.768-10.39-23.108-23.165-23.108-12.794 0-23.166 10.372-23.166 23.166v91.972c0-12.999-10.538-23.537-23.537-23.537-12.999 0-23.537 10.538-23.537 23.537v93.094c0 10.399 3.415 20.51 9.719 28.78l27.635 36.248c6.305 8.27 9.719 18.381 9.719 28.78v19.246l7.823 25.443-7.823 29.353v54.68h155.796v-54.68l-7.49-27.398 7.49-27.398v-22.174c0-8.491 2.278-16.827 6.595-24.138l16.342-27.672c4.318-7.311 6.595-15.647 6.595-24.138v-12.871-137.955c.001-12.794-10.371-23.166-23.166-23.166z" fill="#ffcebf"/><g fill="#ffb09e"><path d="m504.568 153.552v150.82c0 8.5-2.282 16.835-6.598 24.143l-16.342 27.668c-4.317 7.318-6.588 15.654-6.588 24.143v131.65l-21.769-.051v-131.598c0-8.49 2.271-16.825 6.588-24.143l16.342-27.668c4.317-7.308 6.598-15.643 6.598-24.143v-150.82c0-8.86-4.975-16.558-12.282-20.453 3.248-1.737 6.948-2.713 10.884-2.713 12.797-.001 23.167 10.369 23.167 23.165z"/><path d="m319.241 242.411v-46.056c0-6.496-2.631-12.385-6.897-16.64-4.255-4.265-10.134-6.897-16.64-6.897-3.721 0-7.246.863-10.371 2.405 2.343 1.141 4.461 2.662 6.28 4.492 4.265 4.255 6.897 10.144 6.897 16.64v38.487c0 7.456 4.405 14.222 11.251 17.175 10.274 4.432 26.78 14.827 31.048 38.895.744 4.194 4.435 7.226 8.694 7.226 5.622 0 9.795-5.174 8.661-10.68-7.563-36.74-38.923-45.047-38.923-45.047z"/><path d="m365.574 104.326v103.017c0 5.676-4.602 10.278-10.278 10.278-5.676 0-10.278-4.602-10.278-10.278v-103.017c-.021-9.086-5.262-16.938-12.889-20.71 3.094-1.542 6.578-2.405 10.278-2.405 12.776 0 23.136 10.339 23.167 23.115z"/><path d="m411.925 77.621v129.722c0 5.676-4.602 10.278-10.278 10.278-5.676 0-10.278-4.602-10.278-10.278v-129.722c-.021-9.086-5.262-16.938-12.889-20.71 3.094-1.542 6.578-2.405 10.278-2.405 12.776 0 23.137 10.339 23.167 23.115z"/><path d="m448.066 217.621c-5.673 0-10.273-4.596-10.278-10.268l-.103-108.135c0-4.851-1.429-9.425-3.978-13.146-2.086-3.042-4.892-5.55-8.181-7.297-.226-.123-.452-.237-.678-.35 3.083-1.521 6.557-2.374 10.227-2.374 3.978 0 7.729.976 11.008 2.724 3.289 1.747 6.095 4.255 8.181 7.297 2.549 3.721 3.978 8.294 3.978 13.146l.103 108.115c.005 5.68-4.599 10.288-10.279 10.288z"/></g><path d="m319.24 402.499h155.796v54.795h-155.796z" fill="#fd8087"/><path d="m453.271 402.499h21.765v54.795h-21.765z" fill="#fe646f"/></g><g><path d="m216.667 75.88c-12.794 0-23.166 10.372-23.166 23.166v-54.333c0-12.795-10.372-23.166-23.166-23.166-12.794 0-23.166 10.372-23.166 23.166v-21.547c-.001-12.794-10.372-23.166-23.167-23.166-12.794 0-23.166 10.372-23.166 23.166v26.65c-.031-12.768-10.39-23.108-23.165-23.108-12.794 0-23.166 10.372-23.166 23.166v91.972c0-12.999-10.538-23.537-23.537-23.537-12.999 0-23.537 10.538-23.537 23.537v93.094c0 10.399 3.415 20.51 9.719 28.78l27.635 36.248c6.305 8.27 9.719 18.381 9.719 28.78v39.448l5.574 29.829-5.574 24.967v89.006h155.796v-89.006l-7.137-24.316 7.137-30.479v-42.376c0-8.491 2.278-16.827 6.595-24.138l16.342-27.672c4.318-7.311 6.595-15.647 6.595-24.138v-12.871-137.956c.002-12.794-10.37-23.166-23.165-23.166z" fill="#d78878"/><g fill="#ca6e59"><path d="m239.833 99.047v150.82c0 8.5-2.282 16.835-6.598 24.143l-16.342 27.668c-4.317 7.318-6.588 15.654-6.588 24.143v42.374l-8.441 27.398 8.441 27.398v89.009l-21.769-.051v-186.128c0-8.49 2.271-16.825 6.588-24.143l16.342-27.668c4.317-7.308 6.598-15.643 6.598-24.143v-150.82c0-8.86-4.975-16.558-12.282-20.453 3.248-1.737 6.948-2.713 10.884-2.713 12.797-.001 23.167 10.37 23.167 23.166z"/><path d="m54.506 187.906v-46.056c0-6.496-2.631-12.385-6.897-16.64-4.255-4.265-10.134-6.897-16.64-6.897-3.721 0-7.246.863-10.371 2.405 2.343 1.141 4.461 2.662 6.28 4.492 4.265 4.255 6.897 10.144 6.897 16.64v38.487c0 7.456 4.405 14.222 11.251 17.175 10.274 4.432 26.78 14.827 31.048 38.895.744 4.194 4.435 7.226 8.694 7.226 5.622 0 9.795-5.174 8.661-10.68-7.563-36.74-38.923-45.047-38.923-45.047z"/><path d="m100.839 49.82v103.017c0 5.676-4.602 10.278-10.278 10.278-5.676 0-10.278-4.602-10.278-10.278v-103.017c-.021-9.086-5.262-16.938-12.889-20.71 3.094-1.542 6.578-2.405 10.278-2.405 12.776 0 23.136 10.34 23.167 23.115z"/><path d="m147.19 23.115v129.722c0 5.676-4.602 10.278-10.278 10.278-5.676 0-10.278-4.602-10.278-10.278v-129.722c-.021-9.086-5.262-16.938-12.889-20.71 3.094-1.542 6.579-2.405 10.279-2.405 12.775 0 23.136 10.34 23.166 23.115z"/><path d="m183.331 163.115c-5.673 0-10.273-4.596-10.278-10.268l-.103-108.135c0-4.851-1.429-9.425-3.978-13.146-2.086-3.042-4.892-5.55-8.181-7.297-.226-.123-.452-.236-.678-.35 3.083-1.521 6.557-2.374 10.227-2.374 3.978 0 7.729.976 11.008 2.724 3.289 1.747 6.095 4.255 8.181 7.297 2.549 3.721 3.978 8.294 3.978 13.146l.103 108.115c.005 5.68-4.598 10.288-10.279 10.288z"/></g><path d="m54.505 368.195h155.796v54.795h-155.796z" fill="#fd8087"/><path d="m188.536 368.195h21.765v54.795h-21.765z" fill="#fe646f"/></g></g></svg>