<svg id="Capa_1" enable-background="new 0 0 497 497" height="512" viewBox="0 0 497 497" width="512" xmlns="http://www.w3.org/2000/svg"><g><path d="m380.584 174.174-98.558-27.942-30.785 56.342 8.907 48.907-37.174 2.826-11.027 20.182-190.157 190.157-10.269 2.752c-2.542.681-4.791 1.976-6.618 3.675 2.514 7.43 10.399 21.729 18.083 19.671l136.688-46.625c-.034-2.823-.708-5.696-2.12-8.413l-9.268-17.828s20.798-39.676 66.785-50.79c28.576-6.906 51.618-20.572 63.191-47.49l10.484-39.516z" fill="#ebae9d"/><path d="m4.903 471.072c-3.779 3.514-5.729 8.782-4.569 14.102 1.838 8.425 10.308 13.518 18.542 11.311l126.884-33.999c8.63-2.313 14.012-10.131 13.914-18.369l-136.688 36.626c-7.684 2.059-15.569-2.241-18.083-9.671z" fill="#c38778"/><path d="m148.286 417.876 10.909-10.909c15.263-15.263 34.685-25.774 55.875-29.88 33.11-6.415 58.189-25.179 67.562-60.157 1.694-6.322 9.079-33.883 9.079-33.883l156.691-156.691-116.227-71.905-50.149 91.782c33.641 10.315 74.573 22.866 79.223 24.292 6.186 1.897 12.658 3.139 19.335 3.65l-78.872 78.872-50.471-50.471-28.267 51.733 55.288 55.288c-11.496 26.738-34.024 41.696-62.61 47.376-21.369 4.246-41.051 14.589-56.457 29.994l-7.293 7.293c-6.235 6.236-7.7 15.799-3.616 23.616z" fill="#c38778"/><path d="m469.038 0h-107.111l16.253 123.45c9.675 2.967 17.666 5.417 23.069 7.073 8.306 2.547 17.127 3.917 26.268 3.917 19.606 0 37.736-6.31 52.479-17.004 10.693-14.742 17.004-32.872 17.004-52.478 0-26.729-9.323-47.239-15.238-57.564-2.617-4.566-7.46-7.394-12.724-7.394z" fill="#f3f1f4"/><path d="m427.517 134.441c-9.141 0-17.961-1.371-26.268-3.917-5.403-1.657-13.394-4.107-23.069-7.073l-16.254 21.149c7.619 2.336 14.237 4.365 19.323 5.925 8.306 2.547 17.127 3.917 26.268 3.917 29.814 0 56.218-14.584 72.479-37.004-14.744 10.693-32.873 17.003-52.479 17.003z" fill="#d1cfe8"/><path d="m378.18 123.45c22.622-39.106 17.209-89.988-16.253-123.45h-195.4c-12.885 0-25.367 3.66-35.949 10.354-16.232 25.805-22.348 59.211-.972 80.587l192.585 192.585 2.751 10.269c2.091 7.802 9.885 12.908 17.776 11.187 1.352-.295 2.606-10.776 3.77-11.384l-28.398-105.983c-3.105-11.588-16.137-17.327-26.782-11.793l-17.828 9.268-10.909-10.909c-15.263-15.263-25.774-34.685-29.88-55.875-.974-5.025-2.232-9.865-3.788-14.494z" fill="#ffcdbe"/><g fill="#ebae9d"><path d="m324.943 283.795-2.751-10.269-182.585-182.585c-21.376-21.376-25.26-54.782-9.028-80.587-7.833 4.955-14.627 11.57-19.761 19.608-16.518 25.858-12.695 59.496 8.789 80.979l200.644 200.645 2.752 10.269c2.09 7.802 9.885 12.908 17.776 11.187 8.426-1.838 13.518-10.308 11.312-18.542l-5.601-20.901c-1.164.608-2.418 1.089-3.77 1.384-7.892 1.72-15.686-3.386-17.777-11.188z"/><path d="m230.714 80.171c-13.092-20.503-30.928-34.048-57.379-36.886-4.106-.44-7.815 2.539-8.257 6.657s2.538 7.815 6.657 8.257c27.986 3.003 48.289 19.201 57.168 45.61h.001s85.809 26.313 133.022 40.79c6.468-6.468 11.881-13.59 16.254-21.149-45.274-13.882-121.358-35.273-147.466-43.279z"/></g></g></svg>