<svg height="511pt" viewBox="0 -42 511.9996 511" width="511pt" xmlns="http://www.w3.org/2000/svg"><path d="m79.828125 291.378906c12.566406 24.1875 30.765625 44.144532 58.007813 52.925782 16.71875 5.390624 35.90625 2.425781 50.222656-7.753907 14.316406-10.175781 23.414062-27.328125 23.816406-44.890625.453125-19.894531-9.441406-38.441406-13.265625-57.976562-8.742187-44.679688 36.84375-89.226563 5.117187-130.4375-24.210937-31.445313-72.054687-35.640625-106.339843-20-43.121094 19.667968-51.144531 72.691406-44.164063 115.664062 4.710938 29.03125 11.679688 63.734375 26.605469 92.46875zm0 0" fill="#ffbd86"/><path d="m198.613281 233.683594c3.820313 19.535156 13.710938 38.082031 13.257813 57.976562-.398438 17.5625-9.5 34.714844-23.816406 44.890625-14.316407 10.179688-33.5 13.148438-50.222657 7.753907-6.550781-2.113282-12.589843-4.878907-18.148437-8.203126 15.582031 3.5625 32.660156.285157 45.695312-8.988281 14.316406-10.179687 23.414063-27.332031 23.816406-44.894531.460938-19.890625-9.441406-38.441406-13.257812-57.976562-8.742188-44.675782 36.839844-89.230469 5.113281-130.433594-5.1875-6.738282-11.453125-12.222656-18.445312-16.523438 16.09375 4.046875 30.769531 12.507813 41.121093 25.960938 31.726563 41.207031-13.863281 85.761718-5.113281 130.4375zm0 0" fill="#f6a96c"/><g fill="#ffbd86"><path d="m254.582031 65.636719c7.320313-15.449219 2.222657-33.199219-11.378906-39.644531-13.605469-6.445313-30.566406.855468-37.886719 16.304687-7.320312 15.449219-2.222656 33.199219 11.382813 39.644531 13.601562 6.445313 30.566406-.855468 37.882812-16.304687zm0 0"/><path d="m185.496094 34.410156c4.011718-14.78125-3.285156-29.625-16.296875-33.15625s-26.8125 5.582032-30.824219 20.363282c-4.011719 14.777343 3.285156 29.621093 16.296875 33.152343 13.011719 3.535157 26.8125-5.582031 30.824219-20.359375zm0 0"/><path d="m116.339844 29.308594c-2.28125-13.582032-13.824219-22.960938-25.785156-20.953125-11.957032 2.011719-19.800782 14.648437-17.519532 28.226562 2.285156 13.582031 13.828125 22.960938 25.785156 20.953125 11.957032-2.007812 19.800782-14.648437 17.519532-28.226562zm0 0"/><path d="m57.535156 54.035156c-6.859375-8.539062-18.515625-10.566406-26.035156-4.527344-7.519531 6.039063-8.058594 17.859376-1.199219 26.398438s18.515625 10.566406 26.035157 4.527344c7.519531-6.039063 8.054687-17.855469 1.199218-26.398438zm0 0"/><path d="m25.390625 97.621094c-10.328125-3.640625-21.304687.777344-24.511719 9.875-3.207031 9.09375 2.570313 19.421875 12.898438 23.0625 10.328125 3.644531 21.304687-.777344 24.511718-9.875 3.207032-9.09375-2.570312-19.421875-12.898437-23.0625zm0 0"/><path d="m418.394531 378.9375c-14.417969 23.132812-34.121093 41.605469-61.96875 48.234375-17.085937 4.0625-35.984375-.390625-49.460937-11.65625-13.476563-11.265625-21.207032-29.074219-20.234375-46.613281 1.101562-19.871094 12.417969-37.589844 17.753906-56.765625 12.207031-43.859375-29.757813-91.832031 5.09375-130.4375 26.59375-29.457031 74.621094-29.898438 107.574219-11.628907 41.453125 22.980469 45.308594 76.464844 34.996094 118.761719-6.96875 28.578125-16.632813 62.628907-33.753907 90.105469zm0 0"/></g><path d="m452.152344 288.835938c-6.976563 28.570312-16.640625 62.628906-33.761719 90.101562-14.417969 23.128906-34.117187 41.605469-61.960937 48.230469-17.089844 4.066406-35.988282-.390625-49.464844-11.65625-5.257813-4.394531-9.652344-9.796875-12.980469-15.796875 12.847656 8.238281 29.085937 11.15625 43.957031 7.609375 27.84375-6.621094 47.542969-25.097657 61.964844-48.230469 17.121094-27.472656 26.785156-61.527344 33.757812-90.101562 7.519532-30.863282 7.507813-67.671876-9.152343-94.25 34.53125 24.976562 37.304687 74.441406 27.640625 114.09375zm0 0" fill="#f6a96c"/><path d="m261.816406 140.238281c6.089844 15.976563 22.429688 24.578125 36.496094 19.21875 14.066406-5.363281 20.535156-22.660156 14.445312-38.636719-6.089843-15.972656-22.429687-24.574218-36.496093-19.214843-14.066407 5.363281-20.535157 22.660156-14.445313 38.632812zm0 0" fill="#ffbd86"/><path d="m333.125 114.507812c2.84375 15.042969 15.890625 25.210938 29.140625 22.707032 13.25-2.507813 21.683594-16.734375 18.835937-31.78125-2.84375-15.046875-15.890624-25.210938-29.140624-22.707032-13.246094 2.503907-21.683594 16.734376-18.835938 31.78125zm0 0" fill="#ffbd86"/><path d="m402.488281 114.800781c-3.339843 13.359375 3.492188 26.570313 15.257813 29.511719 11.761718 2.9375 24.003906-5.511719 27.339844-18.871094 3.335937-13.359375-3.496094-26.574218-15.257813-29.511718-11.765625-2.9375-24.003906 5.511718-27.339844 18.871093zm0 0" fill="#ffbd86"/><path d="m459.1875 144.074219c-7.503906 7.976562-7.894531 19.800781-.871094 26.410156 7.027344 6.609375 18.804688 5.5 26.308594-2.476563 7.503906-7.976562 7.894531-19.800781.871094-26.410156-7.023438-6.609375-18.800782-5.5-26.308594 2.476563zm0 0" fill="#ffbd86"/><path d="m487.8125 190.035156c-10.582031 2.824219-17.144531 12.664063-14.65625 21.984375 2.484375 9.320313 13.078125 14.582031 23.660156 11.761719 10.585938-2.824219 17.148438-12.667969 14.660156-21.988281-2.484374-9.316407-13.078124-14.582031-23.664062-11.757813zm0 0" fill="#ffbd86"/></svg>