<svg id="Capa_1" enable-background="new 0 0 512 512" height="512" viewBox="0 0 512 512" width="512" xmlns="http://www.w3.org/2000/svg"><g><path d="m446.503 512h-381.006c-8.284 0-15-6.716-15-15v-62.058c0-21.647 13.862-40.591 34.495-47.14l107.399-34.09c4.559-1.447 9.536-.633 13.396 2.191 3.86 2.825 6.142 7.322 6.142 12.105 0 24.3 19.77 44.07 44.071 44.07s44.071-19.77 44.071-44.07c0-4.784 2.282-9.28 6.142-12.105 3.86-2.824 8.838-3.638 13.396-2.191l107.399 34.09c20.633 6.549 34.495 25.493 34.495 47.14v62.058c0 8.284-6.716 15-15 15z" fill="#aedd4e"/><path d="m446.503 512c8.284 0 15-6.716 15-15v-62.058c0-21.647-13.862-40.591-34.495-47.14l-107.399-34.09c-4.558-1.447-9.536-.633-13.396 2.191-3.86 2.825-6.142 7.322-6.142 12.105 0 24.3-19.77 44.07-44.071 44.07v99.922z" fill="#93ca59"/><path d="m256 424c-35.907 0-65.12-29.213-65.12-65.12v-53.227c0-5.05 2.884-9.656 7.426-11.862 4.543-2.206 9.946-1.625 13.915 1.497 12.586 9.9 27.725 15.133 43.779 15.133s31.194-5.233 43.78-15.133c3.969-3.122 9.372-3.704 13.915-1.497 4.542 2.206 7.426 6.812 7.426 11.862v53.227c-.001 35.907-29.214 65.12-65.121 65.12z" fill="#efbcaa"/><path d="m321.12 358.88v-53.227c0-5.05-2.884-9.656-7.426-11.862-4.543-2.207-9.946-1.625-13.915 1.497-12.586 9.9-27.725 15.133-43.78 15.133v113.579c35.908 0 65.121-29.213 65.121-65.12z" fill="#e0a089"/><path d="m145.379 184.214v48.055c0 60.996 49.624 110.62 110.621 110.62s110.621-49.624 110.621-110.62v-70.721c0-22.311-6.639-43.101-18.047-60.497-9.798-14.943-137.36 21.02-137.36 21.02z" fill="#ffd8cb"/><path d="m256 110.546v232.344c60.997 0 110.621-49.624 110.621-110.62v-70.721c0-22.311-6.639-43.101-18.047-60.497-5.918-9.026-54.79.519-92.574 9.494z" fill="#efbcaa"/><path d="m114.912 351.036h-44.125c-8.284 0-15-6.716-15-15v-44.125c0-8.284 6.716-15 15-15s15 6.716 15 15v29.125h29.124c8.284 0 15 6.716 15 15 .001 8.284-6.715 15-14.999 15z" fill="#5f6c75"/><path d="m441.213 351.036h-44.124c-8.284 0-15-6.716-15-15s6.716-15 15-15h29.124v-29.125c0-8.284 6.716-15 15-15s15 6.716 15 15v44.125c0 8.284-6.716 15-15 15z" fill="#505c62"/><path d="m441.213 74.124c-8.284 0-15-6.716-15-15v-29.124h-29.124c-8.284 0-15-6.716-15-15s6.716-15 15-15h44.124c8.284 0 15 6.716 15 15v44.125c0 8.284-6.716 14.999-15 14.999z" fill="#505c62"/><path d="m70.787 74.124c-8.284 0-15-6.716-15-15v-44.124c0-8.284 6.716-15 15-15h44.124c8.284 0 15 6.716 15 15s-6.716 15-15 15h-29.124v29.125c0 8.284-6.716 14.999-15 14.999z" fill="#5f6c75"/><path d="m248.107 184.441h-102.728v-22.893c0-60.996 49.624-110.621 110.621-110.621 39.913 0 76.876 21.647 96.465 56.492 2.514 4.472 2.568 9.918.144 14.439-20.698 38.603-60.741 62.583-104.502 62.583z" fill="#5f6c75"/><path d="m352.609 121.859c2.424-4.521 2.37-9.967-.144-14.439-19.589-34.846-56.552-56.492-96.465-56.492v133.249c40.639-2.693 77.163-26.05 96.609-62.318z" fill="#505c62"/></g></svg>